<?xml version="1.0" encoding="UTF-8" standalone="no"?>
<!-- Created with Inkscape (http://www.inkscape.org/) -->

<svg
   width="961"
   height="220"
   viewBox="0 0 254.26459 58.208334"
   version="1.1"
   id="svg1494"
   inkscape:version="1.1 (c68e22c387, 2021-05-23)"
   sodipodi:docname="key_white.svg"
   xmlns:inkscape="http://www.inkscape.org/namespaces/inkscape"
   xmlns:sodipodi="http://sodipodi.sourceforge.net/DTD/sodipodi-0.dtd"
   xmlns="http://www.w3.org/2000/svg"
   xmlns:svg="http://www.w3.org/2000/svg">
  <defs
     id="defs54" />
  <sodipodi:namedview
     id="namedview1496"
     pagecolor="#ffffff"
     bordercolor="#666666"
     borderopacity="1.0"
     inkscape:pageshadow="2"
     inkscape:pageopacity="0.0"
     inkscape:pagecheckerboard="0"
     inkscape:document-units="px"
     showgrid="false"
     units="px"
     inkscape:zoom="1.4467453"
     inkscape:cx="736.1351"
     inkscape:cy="154.83029"
     inkscape:window-width="1920"
     inkscape:window-height="986"
     inkscape:window-x="-11"
     inkscape:window-y="-11"
     inkscape:window-maximized="1"
     inkscape:current-layer="blackkeys" />
  <g
     inkscape:label="whitekeys"
     inkscape:groupmode="layer"
     id="whitekeys">
    <rect
       id="rect122"
       class="wbutton"
       width="9.0864859"
       height="25.034405"
       x="-9.1734505"
       y="0.0"
       transform="scale(-1,1)" />
    <rect
       id="rect120"
       class="wbutton"
       width="9.0864859"
       height="25.034405"
       x="-18.259937"
       y="0.0"
       transform="scale(-1,1)" />
    <rect
       id="rect099"
       class="wbutton"
       width="9.0864859"
       height="25.034405"
       x="-27.346424"
       y="0.0"
       transform="scale(-1,1)" />
    <rect
       id="rect118"
       class="wbutton"
       width="9.0864859"
       height="25.034405"
       x="-36.432911"
       y="0.0"
       transform="scale(-1,1)" />
    <rect
       id="rect098"
       class="wbutton"
       width="9.0864859"
       height="25.034405"
       x="-45.519398"
       y="0.0"
       transform="scale(-1,1)" />
    <rect
       id="rect110"
       class="wbutton"
       width="9.0864859"
       height="25.034405"
       x="-54.605885"
       y="0.0"
       transform="scale(-1,1)" />
    <rect
       id="rect109"
       class="wbutton"
       width="9.0864859"
       height="25.034405"
       x="-63.692371"
       y="0.0"
       transform="scale(-1,1)" />
    <rect
       id="rect044"
       class="wbutton"
       width="9.0864859"
       height="25.034405"
       x="-72.778854"
       y="0.0"
       transform="scale(-1,1)" />
    <rect
       id="rect046"
       class="wbutton"
       width="9.0864859"
       height="25.034405"
       x="-81.865341"
       y="0.0"
       transform="scale(-1,1)" />
    <rect
       id="rect047"
       class="wbutton"
       width="9.0864859"
       height="25.034405"
       x="-90.951828"
       y="0.0"
       transform="scale(-1,1)" />
    <rect
       id="rect113"
       class="wbutton"
       width="9.0864859"
       height="25.034405"
       x="-100.03831"
       y="0.0"
       transform="scale(-1,1)" />
    <rect
       id="rect119"
       class="wbutton"
       width="9.0864859"
       height="25.034405"
       x="-109.12479"
       y="0.0"
       transform="scale(-1,1)" />
    <rect
       id="rect101"
       class="wbutton"
       width="9.0864859"
       height="25.034405"
       x="-118.21127"
       y="0.0"
       transform="scale(-1,1)" />
    <rect
       id="rect114"
       class="wbutton"
       width="9.0864859"
       height="25.034405"
       x="-127.29776"
       y="0.0"
       transform="scale(-1,1)" />
    <rect
       id="rect116"
       class="wbutton"
       width="9.0864859"
       height="25.034405"
       x="-136.38425"
       y="0.0"
       transform="scale(-1,1)" />
    <rect
       id="rect121"
       class="wbutton"
       width="9.0864859"
       height="25.034405"
       x="-145.47073"
       y="0.0"
       transform="scale(-1,1)" />
    <rect
       id="rect117"
       class="wbutton"
       width="9.0864859"
       height="25.034405"
       x="-154.55722"
       y="0.0"
       transform="scale(-1,1)" />
    <rect
       id="rect105"
       class="wbutton"
       width="9.0864859"
       height="25.034405"
       x="-163.64371"
       y="0.0"
       transform="scale(-1,1)" />
    <rect
       id="rect111"
       class="wbutton"
       width="9.0864859"
       height="25.034405"
       x="-172.73019"
       y="0.0"
       transform="scale(-1,1)" />
    <rect
       id="rect112"
       class="wbutton"
       width="9.0864859"
       height="25.034405"
       x="-181.81668"
       y="0.0"
       transform="scale(-1,1)" />
    <rect
       id="rect091"
       class="wbutton"
       width="9.0864859"
       height="25.034405"
       x="-190.90317"
       y="0.0"
       transform="scale(-1,1)" />
    <rect
       id="rect093"
       class="wbutton"
       width="9.0864859"
       height="25.034405"
       x="-199.98965"
       y="0.0"
       transform="scale(-1,1)" />
    <rect
       id="lect022"
       class="wbutton"
       width="9.0864859"
       height="25.034405"
       x="-209.07614"
       y="0.0"
       transform="scale(-1,1)" />
    <rect
       id="lect023"
       class="wbutton"
       width="9.0864859"
       height="25.034405"
       x="-218.16263"
       y="0.0"
       transform="scale(-1,1)" />
    <rect
       id="lect024"
       class="wbutton"
       width="9.0864859"
       height="25.034405"
       x="-227.24911"
       y="0.0"
       transform="scale(-1,1)" />
    <rect
       id="lect025"
       class="wbutton"
       width="9.0864859"
       height="25.034405"
       x="-236.3356"
       y="0.0"
       transform="scale(-1,1)" />
    <rect
       id="lect026"
       class="wbutton"
       width="9.0864859"
       height="25.034405"
       x="-245.42209"
       y="0.0"
       transform="scale(-1,1)" />
    <rect
       id="lect027"
       class="wbutton"
       width="9.0864859"
       height="25.034405"
       x="-254.50858"
       y="0.0"
       transform="scale(-1,1)" />
  </g>
  <g
     inkscape:groupmode="layer"
     id="blackkeys"
     inkscape:label="blackkeys">
    <rect
       id="rect103"
       class="bbutton"
       width="6.2579055"
       height="18.089607"
       x="-39.607914"
       y="0.0"
       transform="scale(-1,1)" />
    <rect
       id="rect104"
       class="bbutton"
       width="6.2579055"
       height="18.089607"
       x="-49.040821"
       y="0.0"
       transform="scale(-1,1)" />
    <rect
       id="rect115"
       class="bbutton"
       width="6.2579055"
       height="18.089607"
       x="-12.128633"
       y="0.0"
       transform="scale(-1,1)" />
    <rect
       id="rect100"
       class="bbutton"
       width="6.2579055"
       height="18.089607"
       x="-21.561541"
       y="0.0"
       transform="scale(-1,1)" />
    <rect
       id="rect106"
       class="bbutton"
       width="6.2579055"
       height="18.089607"
       x="-58.27158"
       y="0.0"
       transform="scale(-1,1)" />
    <rect
       id="rect050"
       class="bbutton"
       width="6.2579055"
       height="18.089607"
       x="-103.39606"
       y="0.0"
       transform="scale(-1,1)" />
    <rect
       id="rect051"
       class="bbutton"
       width="6.2579055"
       height="18.089607"
       x="-112.82896"
       y="0.0"
       transform="scale(-1,1)" />
    <rect
       id="rect108"
       class="bbutton"
       width="6.2579055"
       height="18.089607"
       x="-75.798553"
       y="0.0"
       transform="scale(-1,1)" />
    <rect
       id="rect059"
       class="bbutton"
       width="6.2579055"
       height="18.089607"
       x="-85.231453"
       y="0.0"
       transform="scale(-1,1)" />
    <rect
       id="rect052"
       class="bbutton"
       width="6.2579055"
       height="18.089607"
       x="-122.05972"
       y="0.0"
       transform="scale(-1,1)" />
    <rect
       id="rect057"
       class="bbutton"
       width="6.2579055"
       height="18.089607"
       x="-166.47224"
       y="0.0"
       transform="scale(-1,1)" />
    <rect
       id="rect048"
       class="bbutton"
       width="6.2579055"
       height="18.089607"
       x="-175.90515"
       y="0.0"
       transform="scale(-1,1)" />
    <rect
       id="rect054"
       class="bbutton"
       width="6.2579055"
       height="18.089607"
       x="-139.46719"
       y="0.0"
       transform="scale(-1,1)" />
    <rect
       id="rect055"
       class="bbutton"
       width="6.2579055"
       height="18.089607"
       x="-148.9001"
       y="0.0"
       transform="scale(-1,1)" />
    <rect
       id="rect045"
       class="bbutton"
       width="6.2579055"
       height="18.089607"
       x="-185.13591"
       y="0.0"
       transform="scale(-1,1)" />
    <rect
       id="rect_022"
       class="bbutton"
       width="6.2579055"
       height="18.089607"
       x="-202.72618"
       y="0.0"
       transform="scale(-1,1)" />
    <rect
       id="rect_023"
       class="bbutton"
       width="6.2579055"
       height="18.089607"
       x="-212.15909"
       y="0.0"
       transform="scale(-1,1)" />
    <rect
       id="rect_024"
       class="bbutton"
       width="6.2579055"
       height="18.089607"
       x="-229.89491"
       y="0.0"
       transform="scale(-1,1)" />
    <rect
       id="rect_025"
       class="bbutton"
       width="6.2579055"
       height="18.089607"
       x="-239.32782"
       y="0.0"
       transform="scale(-1,1)" />
    <rect
       id="rect_026"
       class="bbutton"
       width="6.2579055"
       height="18.089607"
       x="-248.55858"
       y="0.0"
       transform="scale(-1,1)" />
  </g>
</svg>
